<?xml version="1.0" encoding="UTF-8" standalone="no"?>
<!-- Created with Inkscape (http://www.inkscape.org/) -->
<svg width="512" height="512" viewBox="0 0 135.46666 135.46667" version="1.1" id="svg1" xml:space="preserve" sodipodi:docname="color.svg" inkscape:version="1.3.2 (091e20ef0f, 2023-11-25)" xmlns:inkscape="http://www.inkscape.org/namespaces/inkscape" xmlns:sodipodi="http://sodipodi.sourceforge.net/DTD/sodipodi-0.dtd" xmlns="http://www.w3.org/2000/svg" xmlns:svg="http://www.w3.org/2000/svg"><sodipodi:namedview id="namedview1" pagecolor="#ffffff" bordercolor="#000000" borderopacity="0.25" inkscape:showpageshadow="2" inkscape:pageopacity="0.0" inkscape:pagecheckerboard="0" inkscape:deskcolor="#d1d1d1" inkscape:zoom="1.5410156" inkscape:cx="256" inkscape:cy="256" inkscape:window-width="1920" inkscape:window-height="995" inkscape:window-x="0" inkscape:window-y="0" inkscape:window-maximized="1" inkscape:current-layer="svg1"/><defs id="defs1"/><g id="layer2" style="display:inline"><g id="g60"><path style="display:inline;opacity:1;fill:#c27d64;fill-opacity:1;stroke:#c27d64;stroke-width:5.65685;stroke-dasharray:none;stroke-opacity:1" d="m 135.00956,410.25578 c -6.58335,-4.26806 -11.83518,-10.48463 -15.84193,-18.75202 -4.2865,-8.84463 -6.76942,-17.1669 -10.58399,-35.4755 -1.62058,-7.77817 -3.74262,-17.52016 -4.71565,-21.64886 l -1.76915,-7.50672 2.50129,-10.37563 c 4.30537,-17.85915 11.28688,-39.91365 18.4027,-58.13385 l 3.34682,-8.5696 8.7678,4.42797 c 23.65915,11.94851 56.0398,22.33849 92.72285,29.75199 14.15217,2.86009 21.88721,3.03369 27.71603,0.62204 6.32132,-2.61543 41.69518,-30.60822 57.53455,-45.52946 2.69464,-2.53844 5.0589,-4.24925 5.37451,-3.88908 0.4688,0.53499 5.03596,15.76233 5.03596,16.79037 0,0.17958 -3.73883,3.4389 -8.3085,7.24294 -4.56968,3.80404 -14.61775,13.20079 -22.32904,20.88166 l -14.02052,13.96522 -28.40588,0.27223 c -30.717,0.29438 -31.2846,0.35673 -41.48736,4.55709 -19.35829,7.96961 -35.85018,25.72584 -49.13232,52.89905 -8.15249,16.67873 -15.28014,37.46808 -18.42487,53.74012 -0.67644,3.50018 -1.44558,6.60822 -1.7092,6.90677 -0.26361,0.29855 -2.36696,-0.68098 -4.6741,-2.17673 z" id="path60" transform="scale(0.26458333)"/><path style="display:inline;opacity:1;fill:#feb898;fill-opacity:1;stroke:#feb898;stroke-width:4;stroke-dasharray:none;stroke-opacity:1" d="m 188.25,462.97958 c -19.25662,-1.80569 -34.23716,-5.59913 -47.25,-11.96486 -16.21452,-7.93196 -27.21509,-18.83347 -34.50561,-34.19486 -4.11616,-8.67293 -6.40095,-16.39862 -8.079519,-27.31986 -0.991379,-6.45018 -1.267627,-27.18467 -0.469639,-35.25 l 0.412518,-6.13665 1.91376,10.63665 c 3.16213,17.57508 6.45161,26.95551 10.53748,35.68343 4.86536,10.39301 11.38885,18.15829 19.50316,23.21572 3.52757,2.19863 11.00695,5.35085 12.69617,5.35085 0.40125,0 3.91256,-1.45167 7.80293,-3.22594 29.07051,-13.25806 55.50067,-33.54155 86.38765,-66.2971 4.29061,-4.55017 16.25329,-17.71267 26.58375,-29.25 23.10333,-25.80241 33.91568,-37.26834 43.96735,-46.62507 22.41421,-20.86457 38.27573,-31.7608 61.07235,-41.95427 16.96475,-7.58575 28.74925,-10.99399 41.93235,-12.12738 16.24837,-1.39693 30.33323,2.94579 38.99872,12.02429 4.77877,5.00654 8.43165,12.30399 10.23941,20.45547 1.29246,5.82796 1.55032,18.41107 0.53792,26.25 -3.29175,25.48773 -9.86632,48.00469 -19.80774,67.83867 -22.29142,44.47329 -61.91127,74.60435 -125.87363,95.72742 -26.69681,8.81642 -48.78057,13.38342 -79.59938,16.46144 -9.5371,0.95252 -39.54821,1.4008 -47,0.70205 z" id="path58" transform="scale(0.26458333)"/><path style="display:inline;opacity:1;fill:#ffffff;fill-opacity:1;stroke:#ffffff;stroke-width:5.65685;stroke-dasharray:none;stroke-opacity:1" d="m 149.55841,409.60049 c 0.0104,-2.43231 4.34663,-18.36611 7.75474,-28.49539 14.22666,-42.28317 35.47075,-68.64667 61.57421,-76.41235 4.86814,-1.44825 7.05305,-1.58894 28.95357,-1.86438 l 23.68807,-0.29792 -2.53394,2.70728 c -1.39367,1.489 -9.16482,10.18493 -17.2692,19.32428 -17.13764,19.32618 -44.02798,46.47002 -55.03192,55.55071 -14.03318,11.58049 -28.9837,21.5903 -42.1504,28.22095 -4.28413,2.15745 -4.9897,2.33675 -4.98513,1.26682 z" id="path59" transform="scale(0.26458333)"/><path style="fill:#ffffff;stroke:#ffffff;stroke-width:5.65685" d="m 429.07057,367.6242 c 3.09919,-12.62109 4.02776,-43.55274 1.66421,-55.43656 -5.49519,-27.62966 -20.70732,-46.45911 -47.92881,-59.3259 -7.0487,-3.33172 -19.76688,-7.97129 -25.54028,-9.31706 -1.0695,-0.2493 -1.94454,-0.68896 -1.94454,-0.97703 0,-1.1737 22.29057,-10.9772 31.93733,-14.04619 12.41024,-3.94816 17.04205,-4.70429 28.87385,-4.71357 9.52172,-0.007 11.65617,0.20845 16.26346,1.64524 17.81407,5.55535 27.18639,18.84255 28.72442,40.72284 0.55285,7.86494 -0.44679,16.98299 -3.64901,33.28374 -4.69401,23.89463 -12.4582,44.44917 -23.8492,63.13716 -3.81072,6.25184 -5.2397,7.83024 -4.55143,5.02733 z" id="path1" transform="scale(0.26458333)"/></g><g id="g48"><path style="display:inline;fill:none;stroke:#000000;stroke-width:2.11667;stroke-dasharray:none;stroke-opacity:1" d="M 32.907142,64.244494 C 14.669254,108.86833 25.388037,131.40971 75.285649,121.48559 103.00077,114.35875 119.81778,101.99679 123.10325,73.790767 124.45341,57.665615 111.44967,54.557433 97.328129,61.214534 73.895352,70.957342 63.221196,100.35685 37.762314,110.76562 28.197535,107.87239 28.432398,95.541785 25.769205,86.426662" id="path25"/><path style="display:inline;fill:none;stroke:#000000;stroke-width:2.11667;stroke-dasharray:none;stroke-opacity:1" d="m 84.882674,59.887558 2.269887,7.942152" id="path27"/><g id="g43" style="display:inline"><path style="display:inline;fill:none;stroke:#000000;stroke-width:2.11667;stroke-dasharray:none;stroke-opacity:1" d="m 28.740722,100.43687 c 1.740935,3.08836 -1.067971,-1.48048 -3.956691,2.82849" id="path37-5"/><path style="display:inline;fill:none;stroke:#000000;stroke-width:2.11667;stroke-dasharray:none;stroke-opacity:1" d="m 33.14885,107.45454 c -3.995278,3.08396 -3.886622,3.78732 -4.263092,6.25378" id="path37-8"/><path style="display:inline;fill:none;stroke:#000000;stroke-width:2.11667;stroke-dasharray:none;stroke-opacity:1" d="m 37.565724,111.14857 c 0.06235,4.81912 -0.04771,4.37669 -1.773322,8.68062" id="path37"/><path style="display:inline;fill:none;stroke:#000000;stroke-width:2.11667;stroke-dasharray:none;stroke-opacity:1" d="m 48.37095,105.77287 c 4.90267,6.80684 3.642961,9.86637 1.443839,17.43718" id="path38"/><path style="display:inline;fill:none;stroke:#000000;stroke-width:2.11667;stroke-dasharray:none;stroke-opacity:1" d="m 61.768579,93.212138 c 0,0 15.815572,8.429202 8.229989,29.223542" id="path39"/><path style="display:inline;fill:none;stroke:#000000;stroke-width:2.11667;stroke-dasharray:none;stroke-opacity:1" d="M 73.904014,79.291801 C 93.173468,92.064208 93.151776,100.30093 89.072081,117.09673" id="path41"/><path style="display:inline;fill:none;stroke:#000000;stroke-width:2.11667;stroke-dasharray:none;stroke-opacity:1" d="M 91.174794,64.795526 C 113.56206,69.64149 116.11727,82.783393 111.12603,103.09035" id="path42"/></g><path style="display:inline;fill:none;stroke:#000000;stroke-width:2.11667;stroke-dasharray:none;stroke-opacity:1" d="m 38.0561,110.25808 c 0.363946,-3.70889 6.088054,-30.630294 22.961844,-31.278892 l 13.691456,0.0062" id="path43"/></g><g id="g57" style="display:inline;opacity:1"><path style="display:inline;opacity:1;fill:#f3c9a8;fill-opacity:1;stroke:#000000;stroke-width:2.11667;stroke-dasharray:none;stroke-opacity:1" d="m 68.859076,73.201548 c -1.40884,1.057534 -2.969542,1.648755 -4.754985,1.48033 C 41.568261,70.75347 12.669341,60.229027 25.356823,40.489846 22.674216,34.944493 10.293283,17.107066 24.964377,17.861889 40.501218,21.042978 42.453828,22.64084 43.422532,22.073998 57.1895,16.899053 59.2933,17.71308 70.149678,20.505504 c 2.04483,-0.227028 4.254804,-7.627497 20.347584,-8.904611 12.434408,-0.282771 -2.083609,19.489366 0.887131,22.472864 13.825647,9.374532 -7.119259,27.534476 -22.525317,39.127791 z" id="path50"/><path style="display:inline;opacity:1;fill:#ffffff;stroke:#ffffff;stroke-width:4;stroke-dasharray:none;stroke-opacity:1" d="m 229.64609,275.55135 c -10.82402,-2.22668 -30.47071,-6.94614 -36.66652,-8.80791 -2.3851,-0.71669 -2.76351,-1.08585 -7.0476,-6.8754 -6.10542,-8.2509 -7.45971,-10.30829 -9.18006,-13.94597 -2.75806,-5.83191 -2.46934,-9.63362 0.94959,-12.50399 1.93051,-1.62076 12.6054,-6.61847 23.5485,-11.02479 12.6426,-5.09065 23.98581,-8.47112 34.25,-10.2071 6.08973,-1.02995 19.72809,-1.16585 25.5,-0.2541 10.56506,1.66891 21.61225,5.37404 33,11.06791 6.25527,3.12763 7.47452,3.91596 7.34649,4.75 -0.30278,1.97233 -2.82881,6.53133 -7.59375,13.7053 l -4.84514,7.2947 -9.4538,7.53299 c -15.23758,12.14163 -24.17569,18.75781 -27.16222,20.10607 -4.80191,2.16781 -8.74447,2.02196 -22.64549,-0.83771 z" id="path49" transform="scale(0.26458333)"/><path style="display:inline;opacity:1;fill:#ffffff;fill-opacity:1;stroke:#ffffff;stroke-width:2;stroke-dasharray:none;stroke-opacity:1" d="M 99.18506,150.43929 C 98.115228,148.88663 95.493982,143.49375 92.861539,138.75 81.21775,117.76751 76.154764,106.76789 73.505897,96.698797 69.260483,80.560777 73.226511,73.143319 86.838988,71.762602 c 4.628075,-0.469427 5.968088,-0.36174 12.424842,0.9985 17.98408,3.788693 34.54499,7.811337 49.80432,12.097469 5.12499,1.439536 10.21561,2.754724 11.3125,2.922638 l 1.06157,0.179523 0.17518,2.729495 c 1.94727,30.339983 -11.12207,49.962953 -34.74234,58.173903 -6.8866,2.39394 -12.69675,3.56201 -22.42016,3.45371 l -4.0062,-0.0446 z m 11.31498,-8.43931 c 1.33095,-0.6443 2.12496,-2.00708 2.12496,-3.64711 0,-1.09131 -0.40274,-1.93082 -4.30119,-8.96596 -9.303065,-16.78828 -13.153631,-25.5695 -13.617257,-31.054188 -0.183611,-2.172116 0.145896,-3.159168 1.200439,-3.595974 1.092185,-0.452398 8.152438,-0.156387 11.593008,0.486053 13.14347,2.454209 25.82942,8.686039 34.75,17.070539 2.39274,2.24895 2.75173,2.45666 4.24598,2.45666 1.41053,0 2.40063,-0.48392 3.23902,-1.58312 1.8803,-2.4652 0.99029,-4.53816 -3.71265,-8.64736 -10.56904,-9.234664 -25.75863,-15.986701 -40.23257,-17.884069 -3.41913,-0.448208 -8.927573,-0.504756 -11.044717,-0.113381 -4.213299,0.778871 -7.321081,3.882777 -8.096443,8.086344 -1.262388,6.843946 2.043697,16.238396 12.279002,34.891586 6.361558,11.59352 6.480978,11.78635 7.697888,12.42987 1.32821,0.70237 2.52376,0.72401 3.87453,0.0701 z" id="path53" transform="scale(0.26458333)"/><path style="display:inline;opacity:1;fill:#ffffff;fill-opacity:1;stroke:#ffffff;stroke-width:1.41421;stroke-dasharray:none;stroke-opacity:1" d="m 308.38694,128.33488 c -10.82893,-0.83943 -18.77951,-3.94085 -24.73711,-9.64966 -6.39628,-6.12917 -8.50786,-15.77501 -14.15077,-27.733611 -1.47128,-3.117975 -4.07071,-9.508874 -3.96279,-9.600868 0.0261,-0.02223 2.28484,-0.345347 2.72236,-0.563595 1.61359,-0.804907 3.1788,-2.100449 6.71812,-5.560674 5.27971,-5.161718 7.67125,-7.245232 11.31311,-9.856024 12.46268,-8.934307 28.86985,-14.463434 50.01922,-16.856209 5.36478,-0.606953 7.1992,-0.690426 9.64086,-0.43869 9.75244,1.005479 12.79779,6.450746 10.68172,19.099595 -1.03185,6.167914 -3.57476,14.305624 -9.22509,29.521708 -6.20604,16.712568 -7.58108,21.633458 -7.59474,27.179418 -0.003,1.28826 3.18817,5.51504 3.12749,5.51504 -0.0607,0 -2.36221,-0.34298 -4.98811,-0.42958 -4.02258,-0.13266 -0.0641,-0.0857 -13.99511,-0.56549 -3.78686,-0.1304 -12.79454,0.15372 -15.56916,-0.0614 z m 13.12708,-9.67026 c 1.15685,-0.45929 5.27327,-5.06342 8.27023,-9.25008 3.94107,-5.50556 7.36541,-12.449698 9.42951,-19.121864 3.58282,-11.581433 4.11234,-24.724676 1.18227,-29.344925 -0.92424,-1.457375 -2.28812,-2.185603 -5.07974,-2.712282 -1.89861,-0.358197 -6.6122,-0.266064 -9.25168,0.180835 -12.07877,2.045105 -27.89003,9.535158 -39.33281,18.632598 -2.74053,2.178828 -7.97843,7.420585 -9.56463,9.571678 -1.52148,2.06332 -2.86843,4.220233 -3.17948,5.091396 -0.97842,2.740256 0.94375,5.522648 3.8074,5.511324 1.81131,-0.0072 2.86009,-0.779992 4.21098,-3.103014 2.37275,-4.080215 7.45069,-9.114253 13.56648,-13.449171 11.64048,-8.250865 27.34165,-14.568351 36.17161,-14.553925 0.91117,0.0015 1.75381,0.06442 1.87251,0.139836 0.35765,0.227239 0.58376,4.374134 0.40188,7.370467 -0.83787,13.802672 -6.46813,26.976817 -15.81594,37.007387 -1.02799,1.10309 -1.99524,2.24957 -2.14943,2.54774 -0.15418,0.29817 -0.32218,1.00357 -0.37332,1.56755 -0.079,0.87131 -0.0209,1.17278 0.38663,2.00574 1.00925,2.06282 3.16065,2.81663 5.44753,1.90871 z" id="path55" transform="scale(0.26458333)"/><path style="display:inline;opacity:1;fill:#ffffff;fill-opacity:1;stroke:#ffffff;stroke-width:2.11667;stroke-dasharray:none;stroke-opacity:1" d="m 32.448841,58.711127 c 0,0 3.756035,6.901864 10.749923,-0.399757 3.595346,-4.940822 3.423911,-11.548494 -0.386601,-11.655403 -0.01915,-0.0023 -12.689923,-1.520489 -10.363322,12.05516 z" id="path56"/><path style="display:inline;opacity:1;fill:#ffffff;fill-opacity:1;stroke:#ffffff;stroke-width:1.98317;stroke-dasharray:none;stroke-opacity:1" d="m 79.837465,50.907522 c 2.014878,3.955077 6.406178,1.798434 6.649232,0.339425 0.457074,-1.47799 1.254003,-4.897974 -0.529773,-6.908794 -1.646079,-1.551614 -2.829067,-2.021229 -4.769537,-0.921666 0,0 -3.604543,1.836113 -1.349922,7.491035 z" id="path57"/></g><g id="layer1" style="display:inline;opacity:1"><path style="display:inline;fill:none;stroke:#000000;stroke-width:2.11667;stroke-dasharray:none;stroke-opacity:1" d="m 68.859076,73.201548 c -1.40884,1.057534 -2.969542,1.648755 -4.754985,1.48033 C 41.568261,70.75347 12.669341,60.229027 25.356823,40.489846 22.674216,34.944493 10.293283,17.107066 24.964377,17.861889 40.501218,21.042978 42.453828,22.64084 43.422532,22.073998 57.1895,16.899053 59.2933,17.71308 70.149678,20.505504 c 2.04483,-0.227028 4.254804,-7.627497 20.347584,-8.904611 12.434408,-0.282771 -2.083609,19.489366 0.887131,22.472864 13.825647,9.374532 -7.119259,27.534476 -22.525317,39.127791 z" id="path7"/><path style="display:inline;fill:none;stroke:#000000;stroke-width:2.11667;stroke-dasharray:none;stroke-opacity:1" d="m 49.515438,71.088425 c -2.270349,-3.14607 -7.215824,-8.261531 -2.271054,-10.867824 12.822108,-5.972252 20.631345,-7.886603 32.420413,-1.580512 2.130253,0.974403 1.618785,2.149537 -2.192145,7.676303" id="path20"/><ellipse style="display:inline;fill:#000000;stroke:#000000;stroke-width:3.83646;stroke-dasharray:none;stroke-opacity:1" id="path15" cx="57.915474" cy="74.690109" rx="2.0984638" ry="0.94455683" transform="rotate(-5.4703211)"/><ellipse style="display:inline;fill:#000000;stroke:#000000;stroke-width:3.83646;stroke-dasharray:none;stroke-opacity:1" id="path13" cx="52.529469" cy="51.810829" rx="1.0480372" ry="0.97378135"/><ellipse style="display:inline;fill:#000000;stroke:#000000;stroke-width:3.83646;stroke-dasharray:none;stroke-opacity:1" id="path14" cx="73.250954" cy="50.130386" rx="1.0067278" ry="0.98163885"/><g id="g46" style="display:inline"><path style="display:inline;fill:none;stroke:#000000;stroke-width:2.11667;stroke-dasharray:none;stroke-opacity:1" d="M 28.733535,36.616018 C 25.82772,31.381786 21.855737,24.784447 25.240016,23.956211 c 3.713122,-0.473603 10.222992,1.752444 13.530428,5.358122" id="path9"/><ellipse style="display:inline;fill:#000000;stroke:#000000;stroke-width:1.06232;stroke-dasharray:none;stroke-opacity:1" id="path24-20" cx="38.753887" cy="29.295029" rx="0.52717471" ry="0.527174"/><ellipse style="display:inline;fill:#000000;stroke:#000000;stroke-width:1.06232;stroke-dasharray:none;stroke-opacity:1" id="path24" cx="28.736713" cy="36.620266" rx="0.52717471" ry="0.527174"/></g><g id="g44" style="display:inline"><path style="display:inline;fill:none;stroke:#000000;stroke-width:2.11667;stroke-dasharray:none;stroke-opacity:1" d="m 73.504316,24.643029 c 2.536567,-4.766154 12.571789,-9.309236 15.58436,-8.012282 0.694188,0.530674 1.118981,8.224476 -4.516924,13.816556" id="path11"/><ellipse style="display:inline;fill:#000000;stroke:#000000;stroke-width:1.06232;stroke-dasharray:none;stroke-opacity:1" id="path24-2" cx="84.591225" cy="30.430151" rx="0.52717471" ry="0.527174"/><ellipse style="display:inline;fill:#000000;stroke:#000000;stroke-width:1.06232;stroke-dasharray:none;stroke-opacity:1" id="path24-2-1" cx="73.498268" cy="24.661226" rx="0.52717471" ry="0.527174"/></g></g></g></svg>