<?xml version="1.0" encoding="UTF-8" standalone="no"?>
<svg
   width="440"
   height="440"
   viewBox="0 0 440 440"
   fill="none"
   version="1.1"
   id="svg17"
   xmlns="http://www.w3.org/2000/svg"
   xmlns:svg="http://www.w3.org/2000/svg">
  <rect
     width="440"
     height="440"
     fill="#ffffff"
     id="rect1"
     x="0"
     y="0" />
  <path
     d="M 70,94 C 70,76.3269 84.3269,62 102,62 h 235 c 17.673,0 32,14.3269 32,32 v 38 H 70 Z"
     fill="#71ccb9"
     id="path1" />
  <rect
     x="70"
     y="132"
     width="299"
     height="70"
     fill="#5eb5c7"
     id="rect2" />
  <rect
     x="70"
     y="202"
     width="299"
     height="70"
     fill="#54a9ce"
     id="rect3" />
  <path
     d="m 70,272 h 299 v 75 c 0,17.673 -14.327,32 -32,32 H 102 C 84.3269,379 70,364.673 70,347 Z"
     fill="#3786e3"
     id="path3" />
  <rect
     x="70"
     y="272"
     width="299"
     height="70"
     fill="#499cd5"
     id="rect4" />
  <g
     filter="url(#filter0_d_3_63)"
     id="g5">
    <rect
       x="247"
       y="144"
       width="152"
       height="152"
       rx="32"
       fill="#f8fcfc"
       id="rect5" />
  </g>
  <path
     d="M 70,94 C 70,76.3269 84.3269,62 102,62 h 57 V 379 H 102 C 84.3269,379 70,364.673 70,347 Z"
     fill="url(#paint0_linear_3_63)"
     id="path4"
     style="fill:url(#paint0_linear_3_63)" />
  <path
     d="M 70,110.05859 C 52.162858,111.1076 38,126.09382 38,144.48047 38,163.55547 53.216381,179 71.988281,179 c 15.921,0 28.742599,-10.30789 33.499999,-25.33789 2.379,-7.486 -4.028,-12.07145 -8.999999,-11.43945 -4.122,0.542 -6.800222,3.69745 -8.732422,7.18945 -2.6363,4.783 -8.64814,9.86133 -16.11914,9.86133 -9.4805,0 -17.173828,-6.61597 -17.173828,-14.79297 0,-7.69968 6.823816,-14.0146 15.537109,-14.72461 z"
     style="fill:url(#paint1_linear_3_63)"
     id="path27" />
  <path
     d="M 70,191.05859 C 52.162858,192.09228 38,206.85973 38,224.98047 38,243.77847 53.216381,259 71.988281,259 c 15.921,0 28.742599,-10.1577 33.499999,-24.9707 2.379,-7.378 -4.028,-11.89544 -8.999999,-11.27344 -4.122,0.534 -6.800222,3.64398 -8.732422,7.08398 -2.6363,4.715 -8.64814,9.72071 -16.11914,9.72071 -9.4805,0 -17.173828,-6.52308 -17.173828,-14.58008 0,-7.58856 6.823816,-13.81006 15.537109,-14.50977 z"
     style="fill:url(#paint2_linear_3_63)"
     id="path25" />
  <path
     d="M 70,273.05859 C 52.162858,274.1076 38,289.09382 38,307.48047 38,326.55547 53.216381,342 71.988281,342 c 15.921,0 28.742599,-10.30789 33.499999,-25.33789 2.379,-7.486 -4.028,-12.07145 -8.999999,-11.43945 -4.122,0.542 -6.800222,3.69745 -8.732422,7.18945 -2.6363,4.783 -8.64814,9.86133 -16.11914,9.86133 -9.4805,0 -17.173828,-6.61597 -17.173828,-14.79297 0,-7.69968 6.823816,-14.0146 15.537109,-14.72461 z"
     style="fill:url(#paint3_linear_3_63)"
     id="path23" />
  <defs
     id="defs17">
    <filter
       id="filter0_d_3_63"
       x="235"
       y="144"
       width="176"
       height="176"
       filterUnits="userSpaceOnUse"
       color-interpolation-filters="sRGB">
      <feFlood
         flood-opacity="0"
         result="BackgroundImageFix"
         id="feFlood8" />
      <feColorMatrix
         in="SourceAlpha"
         type="matrix"
         values="0 0 0 0 0 0 0 0 0 0 0 0 0 0 0 0 0 0 127 0"
         result="hardAlpha"
         id="feColorMatrix8" />
      <feOffset
         dy="12"
         id="feOffset8" />
      <feGaussianBlur
         stdDeviation="6"
         id="feGaussianBlur8" />
      <feComposite
         in2="hardAlpha"
         operator="out"
         id="feComposite8" />
      <feColorMatrix
         type="matrix"
         values="0 0 0 0 0 0 0 0 0 0 0 0 0 0 0 0 0 0 0.1 0"
         id="feColorMatrix9" />
      <feBlend
         mode="normal"
         in2="BackgroundImageFix"
         result="effect1_dropShadow_3_63"
         id="feBlend9" />
      <feBlend
         mode="normal"
         in="SourceGraphic"
         in2="effect1_dropShadow_3_63"
         result="shape"
         id="feBlend10" />
    </filter>
    <linearGradient
       id="paint0_linear_3_63"
       x1="114.5"
       y1="62"
       x2="114.5"
       y2="379"
       gradientUnits="userSpaceOnUse">
      <stop
         stop-color="#A2D6DB"
         id="stop10" />
      <stop
         offset="1"
         stop-color="#6BB0B7"
         id="stop11" />
    </linearGradient>
    <linearGradient
       id="paint1_linear_3_63"
       x1="70"
       y1="110"
       x2="70"
       y2="179"
       gradientUnits="userSpaceOnUse"
       gradientTransform="translate(2)">
      <stop
         stop-color="#A2D6DB"
         id="stop12" />
      <stop
         offset="1"
         stop-color="#6BB0B7"
         id="stop13" />
    </linearGradient>
    <linearGradient
       id="paint2_linear_3_63"
       x1="70"
       y1="191"
       x2="70"
       y2="259"
       gradientUnits="userSpaceOnUse"
       gradientTransform="translate(2)">
      <stop
         stop-color="#A2D6DB"
         id="stop14" />
      <stop
         offset="1"
         stop-color="#6BB0B7"
         id="stop15" />
    </linearGradient>
    <linearGradient
       id="paint3_linear_3_63"
       x1="70"
       y1="273"
       x2="70"
       y2="342"
       gradientUnits="userSpaceOnUse"
       gradientTransform="translate(2)">
      <stop
         stop-color="#A2D6DB"
         id="stop16" />
      <stop
         offset="1"
         stop-color="#6BB0B7"
         id="stop17" />
    </linearGradient>
  </defs>
  <path
     d="m 290.74,264 v -89.6 h 20.864 l 31.232,82.816 H 344.5 V 174.4 h 10.624 V 264 H 334.26 l -31.104,-82.944 h -1.792 V 264 Z"
     fill="#54a9ce"
     id="path5"
     style="display:none" />
  <path
     d="m 290.74,264 v -89.6 h 20.864 l 31.232,82.816 H 344.5 V 174.4 h 10.624 V 264 H 334.26 l -31.104,-82.944 h -1.792 V 264 Z"
     fill="#54a9ce"
     id="path5-3" />
</svg>
