<?xml version="1.0" encoding="UTF-8" standalone="no"?>
<svg
   height="40"
   viewBox="0 -960 960 960"
   width="40"
   fill="#000000"
   version="1.1"
   id="svg1"
   xmlns="http://www.w3.org/2000/svg"
   xmlns:svg="http://www.w3.org/2000/svg">
  <defs
     id="defs1" />
  <path
     d="m 40,-160 v -160 q 0,-30.67 21.5,-52 21.5,-21.33 51.83,-21.33 H 251 q 18,0 34.33,9 16.34,9 27.34,24.66 29,41 73.16,63.67 44.17,22.67 94.17,22.67 50.33,0 94.5,-22.67 44.17,-22.67 73.5,-63.67 11.67,-15.66 27.5,-24.66 15.83,-9 33.5,-9 h 137.67 q 30.66,0 52,21.33 21.33,21.33 21.33,52 v 160 H 653.33 v -109.67 q -35.66,30.34 -80.16,46.67 -44.5,16.33 -93.17,16.33 -48.33,0 -92.67,-16.5 Q 343,-239.67 306.67,-270 v 110 z m 440,-166.67 q -36,0 -69,-16.83 -33,-16.83 -54,-46.5 -16.33,-23.67 -39.83,-37.83 -23.5,-14.17 -50.84,-17.5 26.67,-32.34 91.67,-50.17 65,-17.83 122,-17.83 57,0 122.33,17.83 65.34,17.83 92,50.17 -27,3.33 -50.66,17.5 -23.67,14.16 -40,37.83 -20.67,30 -53.67,46.67 -33,16.66 -70,16.66 z M 160,-453.33 q -46.67,0 -80,-33.34 -33.33,-33.33 -33.33,-80 0,-47.66 33.33,-80.5 33.33,-32.83 80,-32.83 47.67,0 80.5,32.83 32.83,32.84 32.83,80.5 0,46.67 -32.83,80 -32.83,33.34 -80.5,33.34 z m 640,0 q -46.67,0 -80,-33.34 -33.33,-33.33 -33.33,-80 0,-47.66 33.33,-80.5 33.33,-32.83 80,-32.83 47.67,0 80.5,32.83 32.83,32.84 32.83,80.5 0,46.67 -32.83,80 -32.83,33.34 -80.5,33.34 z m -320,-120 q -46.67,0 -80,-33.34 -33.33,-33.33 -33.33,-80 0,-47.66 33.33,-80.5 33.33,-32.83 80,-32.83 47.67,0 80.5,32.83 32.83,32.84 32.83,80.5 0,46.67 -32.83,80 -32.83,33.34 -80.5,33.34 z"
     id="path1"
     style="fill:#ffffff" />
</svg>
