<?xml version="1.0" encoding="UTF-8" standalone="no"?>
<svg
   viewBox="0 0 25 25"
   version="1.1"
   id="svg1"
   width="25"
   height="25"
   xmlns="http://www.w3.org/2000/svg"
   xmlns:svg="http://www.w3.org/2000/svg">
  <defs
     id="defs1" />
  <path
     d="m 21.177477,4.6130407 a 20.675985,20.675985 0 0 0 -5.15769,-1.5868302 14.169392,14.169392 0 0 0 -0.660688,1.3430049 19.207135,19.207135 0 0 0 -5.7239932,0 A 14.230348,14.230348 0 0 0 8.9744182,3.0262105 20.821494,20.821494 0 0 0 3.8127955,4.6169734 C 0.54868385,9.4462858 -0.33616572,14.155653 0.10625906,18.798163 v 0 A 20.790032,20.790032 0 0 0 6.4319503,21.97379 15.278403,15.278403 0 0 0 7.7867534,19.789194 13.453647,13.453647 0 0 1 5.6532827,18.770634 C 5.832219,18.640856 6.0072225,18.507145 6.1763272,18.377367 a 14.859573,14.859573 0 0 0 12.6474508,0 c 0.171069,0.139609 0.346074,0.273321 0.523043,0.393267 a 13.50477,13.50477 0 0 1 -2.137403,1.020525 15.14076,15.14076 0 0 0 1.354802,2.182631 20.695649,20.695649 0 0 0 6.329624,-3.173662 v 0 C 25.412957,13.41631 24.007029,8.7502041 21.177477,4.6130407 Z M 8.347158,15.943049 c -1.2328903,0 -2.2514505,-1.118843 -2.2514505,-2.495277 0,-1.376432 0.9831662,-2.505108 2.2475179,-2.505108 1.2643517,0 2.2750456,1.128675 2.2534166,2.505108 -0.02163,1.376434 -0.9929976,2.495277 -2.249484,2.495277 z m 8.305789,0 c -1.234858,0 -2.249485,-1.118843 -2.249485,-2.495277 0,-1.376432 0.983167,-2.505108 2.249485,-2.505108 1.266317,0 2.269147,1.128675 2.247518,2.505108 -0.02163,1.376434 -0.991032,2.495277 -2.247518,2.495277 z"
     id="path1"
     style="stroke-width:0.196633" />
</svg>
