<?xml version="1.0" encoding="UTF-8" standalone="no"?>
<svg
   width="25"
   height="25"
   version="1.1"
   id="svg1"
   xmlns="http://www.w3.org/2000/svg"
   xmlns:svg="http://www.w3.org/2000/svg">
  <defs
     id="defs1" />
  <path
     fill-rule="evenodd"
     clip-rule="evenodd"
     d="M 12.510343,0 C 5.5924465,0 0,5.7291427 0,12.816873 c 0,5.665602 3.5832733,10.461415 8.554223,12.158804 0.6214968,0.127603 0.8491485,-0.27578 0.8491485,-0.615102 0,-0.297134 -0.020486,-1.315619 -0.020486,-2.376813 -3.4800746,0.76406 -4.20477,-1.527858 -4.20477,-1.527858 -0.5592703,-1.48541 -1.3879326,-1.86718 -1.3879326,-1.86718 -1.1390267,-0.785153 0.082969,-0.785153 0.082969,-0.785153 1.2634796,0.0849 1.9264607,1.31562 1.9264607,1.31562 1.1182845,1.952075 2.9202922,1.400515 3.6452437,1.060933 0.1034548,-0.827601 0.4350734,-1.400515 0.7871787,-1.718743 -2.7756098,-0.297134 -5.695902,-1.400515 -5.695902,-6.323671 0,-1.400515 0.4967877,-2.5463439 1.2839657,-3.437486 -0.1241969,-0.3182278 -0.5592702,-1.6341077 0.124453,-3.3952983 0,0 1.056314,-0.3395819 3.4380781,1.3156195 A 12.027896,12.23172 0 0 1 12.510344,6.1960678 c 1.056314,0 2.133114,0.1486973 3.127458,0.4244774 2.38202,-1.6552014 3.438334,-1.3156195 3.438334,-1.3156195 0.683723,1.7611906 0.248394,3.0770705 0.124197,3.3952983 0.807919,0.8911421 1.284222,2.036971 1.284222,3.437486 0,4.923156 -2.920292,6.005183 -5.716644,6.323671 0.455816,0.403123 0.849149,1.166922 0.849149,2.376553 0,1.718743 -0.02049,3.098164 -0.02049,3.522381 0,0.339582 0.227907,0.742965 0.849148,0.615622 4.97095,-1.697909 8.554223,-6.493462 8.554223,-12.159064 C 25.02043,5.7291427 19.407498,0 12.510343,0 Z"
     fill="#24292f"
     id="path1"
     style="fill:#000000;stroke-width:0.258237" />
</svg>
