<?xml version="1.0" encoding="UTF-8" standalone="no"?>
<svg
   width="440"
   height="440"
   viewBox="0 0 440 440"
   fill="none"
   version="1.1"
   id="svg17"
   xmlns:xlink="http://www.w3.org/1999/xlink"
   xmlns="http://www.w3.org/2000/svg"
   xmlns:svg="http://www.w3.org/2000/svg">
  <rect
     width="440"
     height="440"
     fill="#ffffff"
     id="rect1"
     x="0"
     y="0" />
  <path
     d="m 370.44321,70.5 c 21.01817,0 38.05678,14.3269 38.05678,32 v 235 c 0,17.673 -17.03861,32 -38.05678,32 h -45.19243 v -299 z"
     fill="#71ccb9"
     id="path1"
     style="fill:#ffeeaa;stroke-width:1.09054" />
  <rect
     x="70.5"
     y="-325.25079"
     width="299"
     height="83.249207"
     fill="#5eb5c7"
     id="rect2"
     transform="rotate(90)"
     style="fill:#ffdd55;stroke-width:1.09054" />
  <rect
     x="70.5"
     y="-242.00157"
     width="299"
     height="83.249207"
     fill="#54a9ce"
     id="rect3"
     transform="rotate(90)"
     style="fill:#ffcc00;stroke-width:1.09054" />
  <path
     d="m 158.75237,70.5 v 299 H 69.556788 c -21.018046,0 -38.056781,-14.327 -38.056781,-32 v -235 c 0,-17.6731 17.038735,-32 38.056781,-32 z"
     fill="#3786e3"
     id="path3"
     style="fill:#aa8800;stroke-width:1.09054" />
  <rect
     x="70.5"
     y="-158.75237"
     width="299"
     height="83.249207"
     fill="#499cd5"
     id="rect4"
     transform="rotate(90)"
     style="fill:#d4aa00;stroke-width:1.09054" />
  <path
     id="path4"
     style="display:inline;fill:url(#linearGradient22);stroke-width:1.09054"
     d="m 69.556788,70.5 c -12.375485,0 -23.33885,4.989195 -30.289332,12.681641 L 220.07665,195.76367 400.78597,83.244141 C 393.83861,75.516779 382.85162,70.5 370.44321,70.5 Z" />
  <g
     filter="url(#filter0_d_3_63)"
     id="g5">
    <path
       id="rect5"
       style="fill:#f8fcfc"
       d="m 279,144 h 88 c 17.728,0 32,14.272 32,32 v 88 c 0,17.728 -14.272,32 -32,32 h -88 c -17.728,0 -32,-14.272 -32,-32 v -88 c 0,-17.728 14.272,-32 32,-32 z" />
    <path
       d="m 290.45084,264.26282 v -89.6889 h 8.20013 v 40.48813 h 1.53752 l 41.51315,-40.48813 h 11.53143 l -46.38198,44.33194 47.9195,45.35696 h -11.65956 l -42.92254,-41.2569 h -1.53752 v 41.2569 z"
       id="text1"
       style="font-weight:300;font-size:128.127px;line-height:0;font-family:'Space Grotesk';-inkscape-font-specification:'Space Grotesk Light';fill:#d2a800;stroke-width:1.77955;paint-order:stroke fill markers"
       transform="scale(1.0009955,0.99900551)"
       aria-label="K" />
  </g>
  <defs
     id="defs17">
    <linearGradient
       id="linearGradient21">
      <stop
         style="stop-color:#ffc900;stop-opacity:1;"
         offset="0"
         id="stop21" />
      <stop
         style="stop-color:#deb200;stop-opacity:1;"
         offset="1"
         id="stop22" />
    </linearGradient>
    <filter
       id="filter0_d_3_63"
       x="235"
       y="144"
       width="176"
       height="176"
       filterUnits="userSpaceOnUse"
       color-interpolation-filters="sRGB">
      <feFlood
         flood-opacity="0"
         result="BackgroundImageFix"
         id="feFlood8" />
      <feColorMatrix
         in="SourceAlpha"
         type="matrix"
         values="0 0 0 0 0 0 0 0 0 0 0 0 0 0 0 0 0 0 127 0"
         result="hardAlpha"
         id="feColorMatrix8" />
      <feOffset
         dy="12"
         id="feOffset8" />
      <feGaussianBlur
         stdDeviation="6"
         id="feGaussianBlur8" />
      <feComposite
         in2="hardAlpha"
         operator="out"
         id="feComposite8" />
      <feColorMatrix
         type="matrix"
         values="0 0 0 0 0 0 0 0 0 0 0 0 0 0 0 0 0 0 0.1 0"
         id="feColorMatrix9" />
      <feBlend
         mode="normal"
         in2="BackgroundImageFix"
         result="effect1_dropShadow_3_63"
         id="feBlend9" />
      <feBlend
         mode="normal"
         in="SourceGraphic"
         in2="effect1_dropShadow_3_63"
         result="shape"
         id="feBlend10" />
    </filter>
    <linearGradient
       xlink:href="#linearGradient21"
       id="linearGradient22"
       x1="39.267456"
       y1="133.13184"
       x2="400.78598"
       y2="133.13184"
       gradientUnits="userSpaceOnUse" />
  </defs>
</svg>
