<?xml version="1.0" encoding="UTF-8" standalone="no"?>
<!-- Uploaded to: SVG Repo, www.svgrepo.com, Generator: SVG Repo Mixer Tools -->

<svg
   width="800px"
   height="800px"
   viewBox="0 0 36 36"
   aria-hidden="true"
   role="img"
   class="iconify iconify--twemoji"
   preserveAspectRatio="xMidYMid meet"
   version="1.1"
   id="svg5"
   sodipodi:docname="incoming-envelope-svgrepo-com.svg"
   xml:space="preserve"
   inkscape:version="1.3.2 (091e20ef0f, 2023-11-25)"
   xmlns:inkscape="http://www.inkscape.org/namespaces/inkscape"
   xmlns:sodipodi="http://sodipodi.sourceforge.net/DTD/sodipodi-0.dtd"
   xmlns="http://www.w3.org/2000/svg"
   xmlns:svg="http://www.w3.org/2000/svg"><defs
     id="defs5" /><sodipodi:namedview
     id="namedview5"
     pagecolor="#ffffff"
     bordercolor="#000000"
     borderopacity="0.25"
     inkscape:showpageshadow="2"
     inkscape:pageopacity="0.0"
     inkscape:pagecheckerboard="0"
     inkscape:deskcolor="#d1d1d1"
     inkscape:zoom="0.34869203"
     inkscape:cx="-354.18073"
     inkscape:cy="-27.244672"
     inkscape:window-width="1920"
     inkscape:window-height="995"
     inkscape:window-x="0"
     inkscape:window-y="0"
     inkscape:window-maximized="1"
     inkscape:current-layer="svg5" /><path
     fill="#55ACEE"
     d="M7 12a1 1 0 0 1-1 1H1a1 1 0 0 1 0-2h5a1 1 0 0 1 1 1m-2 5a1 1 0 0 1-1 1H1a1 1 0 0 1 0-2h3a1 1 0 0 1 1 1m-2 5a1 1 0 0 1-1 1H1a1 1 0 1 1 0-2h1a1 1 0 0 1 1 1"
     id="path1" /><path
     fill="#CCD6DD"
     d="M32.301 25c-.626 2.209-2.925 4-5.134 4h-20c-2.209 0-3.492-1.791-2.866-4l3.398-12c.626-2.209 2.924-4 5.133-4h20c2.209 0 3.493 1.791 2.867 4l-3.398 12z"
     id="path2" /><path
     fill="#99AAB5"
     d="M17.336 17.636L4.384 26.949c-.034.028-.054.063-.085.091a2.66 2.66 0 0 0 .992 1.384c.035-.023.073-.033.107-.06L18.35 19.05c.501-.391.681-1.023.401-1.414c-.281-.391-.913-.391-1.415 0m13.81 9.404c-.015-.028-.016-.063-.034-.09l-7.674-9.314c-.281-.391-.913-.391-1.416 0c-.501.391-.68 1.023-.4 1.414l7.676 9.314c.018.026.051.037.072.06a6.04 6.04 0 0 0 1.776-1.384"
     id="path3" /><path
     fill="#99AAB5"
     d="M35.699 13c.626-2.209-.658-4-2.867-4h-20c-2.209 0-4.507 1.791-5.133 4l-.021.074l8.806 8.452c1.631 1.584 3.788 1.475 5.725.371l13.227-7.964l.263-.933z"
     id="path4" /><path
     fill="#E1E8ED"
     d="M32.832 9h-20c-1.578 0-3.189.921-4.217 2.248l9.217 8.794c.749.719 2.434.729 3.656 0l14.294-8.768C35.516 9.933 34.42 9 32.832 9z"
     id="path5" /><path
     fill="#ffcc4d"
     d="m 25.162824,20.200166 c 0.01044,-0.969908 -0.04068,-1.46924 -0.262798,-2.090223 0,0 1.196607,-2.529296 0.741772,-3.683419 -0.153312,-0.388676 -2.227686,0.232537 -3.058963,0.729913 0,0 -1.135986,-0.433634 -2.014436,-0.539686 -0.878449,-0.106052 -2.084995,0.04477 -2.084995,0.04477 -0.689026,-0.680917 -2.555962,-1.777951 -2.797367,-1.436928 -0.716431,1.012719 -0.156138,3.75412 -0.156138,3.75412 -0.363518,0.550282 -0.532007,1.023101 -0.75269,1.967627 -0.242359,1.035491 -0.113203,1.899853 -0.03504,2.096453 0.08889,0.223443 0.586161,0.969445 1.287329,1.640836 1.065214,1.019853 2.786762,1.524774 3.372395,1.595476 0.585633,0.0707 2.377882,-0.01001 3.655201,-0.747057 0.840803,-0.485234 1.501326,-1.091459 1.640836,-1.287329 0.122707,-0.172349 0.453858,-0.98114 0.464892,-2.044558 z"
     id="path1-3"
     style="stroke-width:0.294943" /><path
     fill="#e75a70"
     d="m 20.143688,19.415565 c 0.880354,0.08886 0.865544,0.235583 0.835924,0.529038 -0.02962,0.293451 -0.529039,0.835925 -0.969216,0.791494 -0.440178,-0.04443 -0.821114,-0.675763 -0.791494,-0.969216 0.02962,-0.29345 0.04413,-0.440207 0.924786,-0.351316 z"
     id="path2-6"
     style="stroke-width:0.294943" /><path
     fill="#f18f26"
     d="m 15.883406,14.050553 c 0.17833,-0.377158 1.616134,0.492195 1.8736,0.820362 0,0 -1.464721,0.714422 -1.863589,1.557521 0,0 -0.40888,-1.534784 -0.01001,-2.377883 z m 9.370128,1.131225 c -0.08345,-0.408762 -1.686836,0.09344 -2.015003,0.350904 0,0 1.252616,1.042477 1.43938,1.956277 0,0 0.762387,-1.393381 0.575623,-2.307181 z"
     id="path3-7"
     style="stroke-width:0.294943" /><path
     fill="#ffcc4d"
     d="m 16.650512,14.916474 c 0.04999,-0.414043 1.726839,0.623502 1.398672,0.880968 -0.328167,0.257465 -0.6423,0.398683 -0.970467,0.656149 -0.328167,0.257466 -0.463556,-1.244301 -0.428205,-1.537117 z m 7.65188,0.923786 c 0.04999,-0.414043 -1.825609,0.194627 -1.568144,0.522794 0.257466,0.328167 0.528966,0.540086 0.786431,0.868254 0.257467,0.328167 0.746363,-1.098232 0.781713,-1.391048 z"
     id="path4-5"
     style="stroke-width:0.294943" /><path
     fill="#fee7b8"
     d="m 14.84176,20.594391 c -0.04347,-0.004 -0.0846,-0.02702 -0.110303,-0.0664 -0.04437,-0.06835 -0.02504,-0.159572 0.04331,-0.203944 0.05101,-0.03293 1.264839,-0.807962 3.197643,-0.477969 0.08023,0.01329 0.134235,0.08963 0.120651,0.169832 -0.01358,0.0802 -0.08899,0.140217 -0.170125,0.120624 -1.817895,-0.307299 -2.97591,0.427539 -2.987266,0.435085 -0.02923,0.01835 -0.06219,0.02569 -0.09391,0.02277 z m 2.730341,-1.130419 c -0.01439,-0.0013 -0.02918,-0.0048 -0.04317,-0.01048 -1.366489,-0.568849 -2.556763,-0.337522 -2.568808,-0.33537 -0.08002,0.01664 -0.157595,-0.0352 -0.173946,-0.115192 -0.01606,-0.07996 0.0355,-0.157569 0.115165,-0.173652 0.05221,-0.01061 1.292457,-0.250675 2.740573,0.351733 0.0753,0.0315 0.110925,0.117699 0.07943,0.192999 -0.02513,0.06078 -0.08668,0.09571 -0.149243,0.08996 z m 7.431345,2.063405 c 0.04347,0.004 0.0881,-0.01116 0.120551,-0.04521 0.05607,-0.05912 0.05368,-0.152345 -0.0054,-0.208421 -0.04415,-0.04167 -1.096568,-1.024772 -3.057147,-1.052246 -0.08131,-0.0015 -0.148312,0.06369 -0.14956,0.145022 -0.0012,0.08134 0.06197,0.154078 0.145316,0.149587 1.84346,0.02886 2.848306,0.962284 2.858097,0.971772 0.0254,0.02336 0.05647,0.03658 0.08819,0.03949 z m -2.478852,-1.608696 c 0.01439,0.0013 0.02956,6.41e-4 0.04436,-0.0024 1.447226,-0.31051 2.575478,0.13369 2.586929,0.138 0.07565,0.03094 0.161371,-0.0059 0.192014,-0.08159 0.03035,-0.0757 -0.0062,-0.161398 -0.08162,-0.19172 -0.04941,-0.01994 -1.225202,-0.481831 -2.758802,-0.153187 -0.07978,0.01726 -0.130503,0.09553 -0.113244,0.17531 0.01335,0.06431 0.06781,0.109889 0.130366,0.115633 z"
     id="path5-3"
     style="stroke-width:0.294943" /><path
     fill="#292f33"
     d="m 23.049913,21.155522 c -0.292619,0.02483 -1.530888,0.368634 -2.996788,0.207646 -1.4659,-0.160988 -2.600043,-0.765331 -2.880298,-0.853078 -0.280287,-0.08746 -0.3547,0.279422 -0.251544,0.845016 0.103449,0.565626 0.854199,1.834939 2.906459,2.060322 2.052259,0.225383 3.06059,-0.850744 3.284329,-1.380438 0.223446,-0.529726 0.230428,-0.904009 -0.06216,-0.879468 z"
     id="path6"
     style="stroke-width:0.294943" /><path
     fill="#f5f8fa"
     d="m 17.153523,20.748013 c 0,0 1.401504,0.747347 2.867404,0.908335 1.4659,0.160988 2.996195,-0.264384 2.996195,-0.264384 0,0 -0.243183,0.863441 -0.536363,0.831243 -0.29318,-0.0322 -0.407572,-0.341476 -0.407572,-0.341476 0,0 -1.237115,0.45757 -2.116655,0.360977 -0.87954,-0.09659 -1.987865,-0.811743 -1.987865,-0.811743 0,0 -0.178787,0.277081 -0.471967,0.244884 -0.29318,-0.0322 -0.343177,-0.927836 -0.343177,-0.927836 z"
     id="path7"
     style="stroke-width:0.294943" /><g
     fill="#292f33"
     id="g8"
     transform="matrix(0.29489345,0.0053877,-0.0053877,0.29489345,14.818182,13.59627)"><ellipse
       cx="22.07283"
       cy="18.121706"
       rx="2"
       ry="3.5"
       id="ellipse8"
       transform="rotate(-6.6296167)" /><ellipse
       cx="12.557014"
       cy="14.02037"
       rx="2"
       ry="3.5"
       id="ellipse7-5"
       transform="rotate(2.237909)" /></g></svg>
